<svg class="social__fb" data-name="ssFb.svg" xmlns="http://www.w3.org/2000/svg" viewBox="0 0 197.74 395.09">
                    <defs>
                        <style>
                            .cls-1 {
                                fill: #847d79;
                                stroke: #847d79;
                                stroke-miterlimit: 10;
                            }
                        </style>
                    </defs>
                    <title>ssFb</title>
                    <path class="cls-1" d="M1586.63,1734.74V1538.05h-43.39v-67.87h43.36c0-4.23,0-7.64,0-11.05.14-14.29-.21-28.61.63-42.85a107.47,107.47,0,0,1,4.58-24.76c8.59-28.14,29.4-42.31,57.08-47.57a183.28,183.28,0,0,1,29.5-3c19.24-.48,38.49-.19,57.74-.2a18.22,18.22,0,0,1,2.87.52v66.93c-1.95.16-4.14.48-6.34.49-9.92.06-19.83-.1-29.75.09a80.14,80.14,0,0,0-13,1.32c-10.63,2-15.13,6.85-15.45,17.84-.4,13.66-.1,27.33-.1,41.8h65.54l-7.69,68.12H1674.1v196.9Z"
                        transform="translate(-1542.73 -1340.15)" />
                </svg>