<svg id="Слой_8" data-name="Слой 8" xmlns="http://www.w3.org/2000/svg" viewBox="0 0 595.45 28.79"><defs><style>.cls-1{fill:#f2dcbc;opacity:0.5;}.cls-2{fill:#f2dcba;}</style></defs><title>sands2.3</title><path class="cls-1" d="M0,35.75H595.2V17c-4.54-.43-36.56-9-88.45-6-38.88,2.28-61.54,7.79-104.14,12-22.25,2.2-46-.61-92.58-6.32C241.3,8.25,234.66,6,204.42,9.18c-45.33,4.82-34.24,7.18-74.21,9.33C75.46,21.44,39.43,5.29,0,22.5l-.24.11V31" transform="translate(0.25 -6.96)"/><path class="cls-2" d="M595.2,14.59c-14.87-.23-25.62,1.32-35.6,4.44-35.75,11.17-137,6.05-175.35,4.47C351.92,22.17,295.67,23,252,19.25c-29-2.49-38.2-1-64.41,2.43-26.74,3.5-33.35,6.81-51.43,6.05-6.15-.26-12.9,1.35-55.16-7.07-13.22-2.63-29.33-7.35-48-7C22.55,13.84,5.2,16.15,0,19V35.75H595.2" transform="translate(0.25 -6.96)"/><path class="cls-1" d="M595.2,17.76c-4.07-2-12.24-1.41-19.94-.18-52.83,8.4-111.54-2.41-128.43-3.95-62.77-5.7-130.12,1.21-155.74,7.81C274.79,25.63,259.41,30.85,239,27c-15.31-2.89-20.34-8.41-36.64-8-7.91.23-16.17,1.8-29.36,0a100.18,100.18,0,0,1-13.65-2.9C138.54,10.35,101.23,7.36,73.44,7A469.36,469.36,0,0,0,0,11.83V35.75H595.2" transform="translate(0.25 -6.96)"/></svg>