<?xml version="1.0" encoding="utf-8"?>
<!-- Generator: Adobe Illustrator 17.1.0, SVG Export Plug-In . SVG Version: 6.00 Build 0)  -->
<!DOCTYPE svg PUBLIC "-//W3C//DTD SVG 1.1//EN" "http://www.w3.org/Graphics/SVG/1.1/DTD/svg11.dtd">
<svg version="1.1" id="Layer_1" xmlns="http://www.w3.org/2000/svg" xmlns:xlink="http://www.w3.org/1999/xlink" x="0px" y="0px"
	 viewBox="0 0 64 64" enable-background="new 0 0 64 64" xml:space="preserve">
<title>ssIn</title>
<path d="M42.3,6.9H21.7c-8.2,0-14.8,6.6-14.8,14.8v20.6c0,8.2,6.6,14.8,14.8,14.8l0,0h20.6c8.2,0,14.8-6.6,14.8-14.8l0,0V21.7
	C57.1,13.5,50.5,6.9,42.3,6.9z M32,44.3c-6.7,0-12.2-5.5-12.2-12.2c0-6.7,5.5-12.2,12.2-12.2c6.7,0,12.2,5.5,12.2,12.2l0,0
	C44.2,38.8,38.7,44.3,32,44.3L32,44.3z M46.3,23c-2.8,0-5.1-2.3-5.1-5.1s2.3-5.1,5.1-5.1c2.8,0,5.1,2.3,5.1,5.1
	C51.4,20.7,49.1,23,46.3,23L46.3,23z"/>
</svg>
