<svg xmlns="http://www.w3.org/2000/svg" viewBox="0 0 595.2 69.81"><defs><style>.cls-1{fill:#f2dcbc;opacity:0.5;}</style></defs><title>sands01</title><g id="Слой_2" data-name="Слой 2"><path class="cls-1" d="M241.65,72.6l1.71-.05H229.15C233.61,72.69,237.65,72.71,241.65,72.6Z" transform="translate(0 -2.86)"/></g><g id="Слой_5" data-name="Слой 5"><path class="cls-1" d="M575.26,17.58c-15.41-.23-20.84-3.26-33.18-4.78-17.8-2.19-23.6,2-42.09,3.2-22.91,1.46-36.76-3.54-53.4-6.8-61.3-12-129.88,5.65-155.51,12.24C274.79,25.63,259.41,30.85,239,27c-15.31-2.89-20.34-8.41-36.64-8-7.91.23-16.17,1.8-29.36,0a100.18,100.18,0,0,1-13.65-2.9C138.54,10.35,101.23,7.36,73.44,7A466.46,466.46,0,0,0,.24,11.83V59.92c10.52,4.88,25.67-1.28,35.68-4.41,35.75-11.17,42.84,4.89,153.2,13.4,18.21,1.41,30.15,2.33,40,2.64h14.21C285.78,70.14,295,61.32,350.08,56.71c29-2.43,31.64-.42,57.85-3.85,26.74-3.5,33.35-6.81,51.43-6.05,6.15.26,7.55.73,49.6,10.14,31.2,7,47.12,10.41,62.88,7.2a84.74,84.74,0,0,0,23.36-8.53V17.76C591.13,15.75,588.17,17.77,575.26,17.58Z" transform="translate(0 -2.86)"/><path class="cls-1" d="M559.6,19c-35.75,11.17-42.84-4.89-153.2-13.4l-6.63-.51c-22.09-1.69-34.12-2.52-45.9-2.19a248,248,0,0,0-27.62,2.19c-23.6,3.27-39,9.2-80.81,12.71-29,2.43-31.64.42-57.85,3.85-26.74,3.5-33.35,6.81-51.43,6.05-6.15-.26-7.55-.73-49.6-10.14-31.2-7-47.12-10.41-62.88-7.2A84.77,84.77,0,0,0,.24,19v46.1a466.46,466.46,0,0,0,73.19,4.83c27.79-.36,65.1-3.35,85.91-9.1A100.18,100.18,0,0,1,173,57.89c13.19-1.85,21.45-.28,29.36,0,16.3.46,21.33-5.06,36.64-8,20.41-3.85,35.79,1.37,52.09,5.56C316.72,62,385.3,79.69,446.6,67.69c16.64-3.26,30.5-8.26,53.4-6.8,18.49,1.18,24.29,5.39,42.09,3.2,12.34-1.52,17.77-4.55,33.18-4.78,12.91-.19,15.87,1.83,19.94-.18V14.59C584.68,9.77,569.58,15.91,559.6,19Z" transform="translate(0 -2.86)"/></g><g id="Слой_6" data-name="Слой 6"><path class="cls-1" d="M585.36,17.26C556.23,20.77,530.91,3,479,6c-38.89,2.28-33.39,12.79-76,17-22.26,2.2-46-.61-92.61-6.33C241.64,8.24,234.38,3.43,204,5c-41.36,2.14-33.52,11.36-73.5,13.5C75.74,21.43,39.7,5.28.24,22.5L0,22.61V49.12L.24,49C27.59,35.55,59.43,40.51,122,51c52.74,8.84,51.53,13.87,73.5,12.5,37.8-2.36,41.06-17.24,77.5-21,40.44-4.18,48.94,12.86,96.5,15,40.59,1.82,38.91-10.38,89-14.5C529,37.2,577.66,57.67,595.2,44.21V17A44.27,44.27,0,0,0,585.36,17.26Z" transform="translate(0 -2.86)"/></g></svg>