<svg id="Слой_7" data-name="Слой 7" xmlns="http://www.w3.org/2000/svg" viewBox="0 0 595.2 50.6"><defs><style>.cls-1{fill:#f2dcbc;opacity:0.5;}.cls-2{fill:#f3e2c9;}</style></defs><title>sands2</title><path class="cls-1" d="M384.33,14c13,.53,33.1,2.56,55.47,4.57,11.34-1.55,21.76-3.09,32.66-4.42-11.68-2-20.77-4-25.87-5-43.71-8.56-91.12-2-124,4.79C346.51,13.41,369,13.37,384.33,14Z" transform="translate(0 -5.12)"/><path class="cls-1" d="M85.79,17.42a320.32,320.32,0,0,0,44.66,1.09c14.49-.78,22.27-1.58,28.46-2.52C138,10.31,101,7.36,73.44,7A466.46,466.46,0,0,0,.24,11.83V19a84.77,84.77,0,0,1,23.44-8.57C39.31,7.21,55.11,10.56,85.79,17.42Z" transform="translate(0 -5.12)"/><path class="cls-1" d="M310.33,16.69c3.8-.88,7.9-1.79,12.25-2.69-8.88.22-17.95.51-26.91.87l14.62,1.81Z" transform="translate(0 -5.12)"/><path class="cls-1" d="M583.19,14.84c6.4,1.11,10.4,2,11.81,2.17v.67l.2.09V14.59C590.87,14.52,586.9,14.61,583.19,14.84Z" transform="translate(0 -5.12)"/><path class="cls-1" d="M85.79,17.42c-30.69-6.86-46.48-10.21-62.11-7A84.77,84.77,0,0,0,.24,19V22.5C27.89,10.44,53.87,14.76,85.79,17.42Z" transform="translate(0 -5.12)"/><path class="cls-1" d="M402.86,23c14.05-1.39,25.93-2.92,36.94-4.43-22.37-2-42.52-4-55.47-4.57-15.29-.63-37.82-.59-61.75,0-4.35.9-8.44,1.81-12.25,2.69C356.88,22.39,380.62,25.2,402.86,23Z" transform="translate(0 -5.12)"/><path class="cls-1" d="M595,31V55.72l.2-.11V17.76l-.2-.09Z" transform="translate(0 -5.12)"/><path class="cls-1" d="M173,19c13.19,1.85,21.45.28,29.36,0a55,55,0,0,1,9.3.46c8.9-.36,16.85-.26,33.78-1.68,14.71-1.23,32.26-2.24,50.23-3-55.25-6.93-63.05-8.66-91-5.69-28.9,3.07-34.87,5.15-45.75,6.8l.43.12A100.18,100.18,0,0,0,173,19Z" transform="translate(0 -5.12)"/><path class="cls-1" d="M557.63,19.6c.67-.18,1.33-.37,2-.57a97.22,97.22,0,0,1,23.59-4.19C568.94,12.35,542.81,8.9,507,11c-12.85.75-23.92,1.86-34.53,3.16C494.71,18,526.34,21.91,557.63,19.6Z" transform="translate(0 -5.12)"/><path class="cls-1" d="M.24,38.12V22.5h0L0,22.61V49.12L.24,49h0V38.12Z" transform="translate(0 -5.12)"/><path class="cls-1" d="M85.79,17.42l.77.17C128.61,27,130,27.47,136.16,27.73c18.08.76,24.69-2.55,51.43-6.05,10.9-1.43,17.73-1.91,24.07-2.17a55,55,0,0,0-9.3-.46c-7.91.23-16.17,1.8-29.36,0a100.18,100.18,0,0,1-13.65-2.9l-.43-.12c-6.19.94-14,1.75-28.46,2.52A320.32,320.32,0,0,1,85.79,17.42Z" transform="translate(0 -5.12)"/><path class="cls-1" d="M85.79,17.42l.77.17C128.61,27,130,27.47,136.16,27.73c18.08.76,24.69-2.55,51.43-6.05,10.9-1.43,17.73-1.91,24.07-2.17a55,55,0,0,0-9.3-.46c-7.91.23-16.17,1.8-29.36,0a100.18,100.18,0,0,1-13.65-2.9l-.43-.12c-6.19.94-14,1.75-28.46,2.52A320.32,320.32,0,0,1,85.79,17.42Z" transform="translate(0 -5.12)"/><path class="cls-1" d="M557.63,19.6c-31.3,2.31-62.92-1.63-85.16-5.44-10.91,1.33-21.33,2.86-32.66,4.42C482.43,22.41,533.13,26.21,557.63,19.6Z" transform="translate(0 -5.12)"/><path class="cls-1" d="M557.63,19.6c-31.3,2.31-62.92-1.63-85.16-5.44-10.91,1.33-21.33,2.86-32.66,4.42C482.43,22.41,533.13,26.21,557.63,19.6Z" transform="translate(0 -5.12)"/><path class="cls-1" d="M211.66,19.51C221.35,20.88,227,24.74,239,27c20.41,3.85,35.79-1.37,52.09-5.56,4.94-1.27,11.48-3,19.24-4.75h-.05l-14.62-1.81c-18,.73-35.52,1.73-50.23,3C228.51,19.25,220.57,19.16,211.66,19.51Z" transform="translate(0 -5.12)"/><path class="cls-1" d="M211.66,19.51C221.35,20.88,227,24.74,239,27c20.41,3.85,35.79-1.37,52.09-5.56,4.94-1.27,11.48-3,19.24-4.75h-.05l-14.62-1.81c-18,.73-35.52,1.73-50.23,3C228.51,19.25,220.57,19.16,211.66,19.51Z" transform="translate(0 -5.12)"/><path class="cls-1" d="M557.63,19.6c5.91-.44,11.81-1.09,17.63-2,7.58-1.2,15.61-1.81,19.74.1V17c-1.41-.13-5.41-1.05-11.81-2.17A97.22,97.22,0,0,0,559.6,19C559,19.23,558.31,19.42,557.63,19.6Z" transform="translate(0 -5.12)"/><path class="cls-1" d="M557.63,19.6c5.91-.44,11.81-1.09,17.63-2,7.58-1.2,15.61-1.81,19.74.1V17c-1.41-.13-5.41-1.05-11.81-2.17A97.22,97.22,0,0,0,559.6,19C559,19.23,558.31,19.42,557.63,19.6Z" transform="translate(0 -5.12)"/><path class="cls-1" d="M595,35.75V17.68c-4.13-1.9-12.16-1.3-19.74-.1-5.82.92-11.72,1.58-17.63,2-24.5,6.62-75.2,2.82-117.83-1-11,1.51-22.89,3-36.94,4.43-22.24,2.2-46-.61-92.53-6.32-7.77,1.8-14.31,3.48-19.24,4.75C274.79,25.63,259.41,30.85,239,27c-12-2.26-17.65-6.12-27.34-7.49-6.34.26-13.17.74-24.07,2.17-26.74,3.5-33.35,6.81-51.43,6.05-6.15-.26-7.55-.73-49.6-10.14l-.77-.17c-31.92-2.66-57.9-7-85.55,5.09V35.75Z" transform="translate(0 -5.12)"/><path class="cls-2" d="M595,35.75V17.68c-4.13-1.9-12.16-1.3-19.74-.1-5.82.92-11.72,1.58-17.63,2-24.5,6.62-75.2,2.82-117.83-1-11,1.51-22.89,3-36.94,4.43-22.24,2.2-46-.61-92.53-6.32-7.77,1.8-14.31,3.48-19.24,4.75C274.79,25.63,259.41,30.85,239,27c-12-2.26-17.65-6.12-27.34-7.49-6.34.26-13.17.74-24.07,2.17-26.74,3.5-33.35,6.81-51.43,6.05-6.15-.26-7.55-.73-49.6-10.14l-.77-.17c-31.92-2.66-57.9-7-85.55,5.09V35.75Z" transform="translate(0 -5.12)"/></svg>