<svg class="social__vk" data-name="ssVk.svg" xmlns="http://www.w3.org/2000/svg" viewBox="0 0 455.62 304.37">
                    <defs>
                        <style>
                            .cls-1 {
                                fill: #847d79;
                            }
                        </style>
                    </defs>
                    <title>ssVk</title>
                    <path class="cls-1" d="M3930.11,1544.92c12.57-16.55,25.43-32.88,37.71-49.65a135.9,135.9,0,0,0,18.38-34.41c2.82-7.87,4.8-15.74,3.33-24.34-1.9-11.19-8.72-17.72-20.09-17.77q-34.78-.16-69.56,0a20.8,20.8,0,0,0-7.5,1.36,43,43,0,0,0-17.68,12.65c-1.72,2.1-3.51,4.56-4.09,7.11-2.54,11.37-7.87,21.5-13.52,31.46-12.4,21.89-27,42.38-41.46,62.91a15.63,15.63,0,0,1-3.68,3.84c-3.94,2.74-8.1,4.08-12.83.71v-6.41q0-46.08,0-92.15c0-2.58,0-5.16-.1-7.73-.76-14.41-9-25.29-22.92-29.11a69.49,69.49,0,0,0-17.57-2.3c-10.89-.11-21.79.42-32.68.91a66.6,66.6,0,0,0-23,5.16c-9.44,4-16.92,10.18-21.3,19.65s-1.4,15.18,8.93,16.83c.39.06.79.09,1.17.17,11.29,2.31,13.94,4.73,13.87,16.68-.16,24,0,48-.11,71.94a24.17,24.17,0,0,1-1.08,6.95c-1.11,3.58-3.52,5.64-8.47,5l-5.21-7.78c-22.58-33.65-41.29-69.18-53.16-108.1-2.48-8.14-4.72-9.72-13.19-9.76q-30.92-.14-61.83-.25a63.16,63.16,0,0,0-6.53.21c-12.32,1.24-19.9,8.59-21.26,20.86a41.47,41.47,0,0,0,2.31,18.69c15.33,42.83,33.07,84.59,55.26,124.38,13.72,24.59,29,48.12,47.64,69.35,12.59,14.36,26.37,27.41,42.74,37.45,15.26,9.36,31.61,15.45,49.71,15.67q22.89.28,45.78,0c13.65-.19,21.87-7.45,24.73-21,3.19-15.05,6.56-30.07,9.85-45.1l1.44-.69c2.49,2.72,5.14,5.3,7.43,8.17,11.48,14.4,23.22,28.62,34.17,43.41,8.11,11,17.75,16.11,31.81,15.51,22.95-1,46-.3,69-.35a36,36,0,0,0,18.14-4.82c12.49-7.19,16.22-20.56,9.11-33.12a71.65,71.65,0,0,0-6.62-9.11q-30.18-37.87-60.41-75.69c-5.4-6.79-5.64-11.11-.69-18.26C3920.52,1557.52,3925.32,1551.22,3930.11,1544.92Z"
                        transform="translate(-3534.41 -1401.06)" />
                </svg>